<?xml version="1.0" encoding="UTF-8"?>
<svg version="1.1" xmlns="http://www.w3.org/2000/svg" width="225" height="225">
<path d="M0 0 C74.25 0 148.5 0 225 0 C225 74.25 225 148.5 225 225 C150.75 225 76.5 225 0 225 C0 150.75 0 76.5 0 0 Z " fill="#FDFDFD" transform="translate(0,0)"/>
<path d="M0 0 C74.25 0 148.5 0 225 0 C225 74.25 225 148.5 225 225 C150.75 225 76.5 225 0 225 C0 150.75 0 76.5 0 0 Z M34.1875 43.875 C14.33643524 67.00388436 7.37676022 94.86850052 9.23828125 124.8359375 C11.98148602 150.82710999 26.20142244 175.54912052 45.87890625 192.4765625 C70.62847776 211.65665653 97.80343382 218.68587122 128.8125 215.3125 C155.67100316 211.10679486 180.50802853 195.36717967 196.77539062 173.73339844 C213.59962069 149.91919719 219.81307784 121.10857656 214.9675293 92.39819336 C211.04681098 72.81098074 201.00340267 55.92462613 188 41 C187.45988281 40.37480469 186.91976562 39.74960937 186.36328125 39.10546875 C176.64373521 28.65144819 163.81947973 21.85466071 151 16 C149.8965625 15.47664062 148.793125 14.95328125 147.65625 14.4140625 C107.18545772 -1.23810289 62.95519666 13.5643992 34.1875 43.875 Z " fill="#FDFDFD" transform="translate(0,0)"/>
<path d="M0 0 C4.6741305 3.4276957 9.14976667 7.04040454 13.51953125 10.84765625 C14.14472656 11.38777344 14.76992187 11.92789063 15.4140625 12.484375 C33.27006784 29.08586006 44.64438138 55.59473856 45.87890625 79.62890625 C46.82329098 109.56169465 37.45860903 136.41681005 16.94677734 158.46142578 C4.21622934 171.59266158 -11.04741203 180.40642946 -28.48046875 185.84765625 C-29.393125 186.13382813 -30.30578125 186.42 -31.24609375 186.71484375 C-57.70606905 194.47545103 -85.92427607 189.56959674 -109.81640625 176.55859375 C-123.91244723 168.4194782 -135.49169646 157.39386219 -144.48046875 143.84765625 C-145.09277344 142.94015625 -145.70507812 142.03265625 -146.3359375 141.09765625 C-153.39685287 129.8750093 -158.82040271 116.06088462 -160.48046875 102.84765625 C-160.65320313 101.59984375 -160.8259375 100.35203125 -161.00390625 99.06640625 C-164.29570883 72.2248364 -157.34246485 44.82606271 -140.84375 23.3046875 C-123.70946095 1.98386505 -102.00461145 -10.52692694 -75.48046875 -16.15234375 C-74.70960937 -16.34441406 -73.93875 -16.53648438 -73.14453125 -16.734375 C-47.77421519 -20.71476183 -21.13613105 -14.25308991 0 0 Z M-88.48046875 -1.15234375 C-89.16109375 -0.8785791 -89.84171875 -0.60481445 -90.54296875 -0.32275391 C-100.61320806 3.82447635 -109.06475521 8.90199523 -117.48046875 15.84765625 C-118.53234375 16.63140625 -119.58421875 17.41515625 -120.66796875 18.22265625 C-130.46280133 27.36449999 -137.77523152 38.62590997 -143.23046875 50.78515625 C-143.65320068 51.7146106 -143.65320068 51.7146106 -144.08447266 52.6628418 C-148.76718148 63.53930667 -149.96286382 74.01346333 -149.85546875 85.78515625 C-149.86707031 87.05294922 -149.87867188 88.32074219 -149.890625 89.62695312 C-149.85560792 101.01333911 -148.0138906 111.60083099 -143.23046875 121.97265625 C-142.77269043 122.98356323 -142.77269043 122.98356323 -142.30566406 124.01489258 C-131.3880684 147.5415819 -112.79737253 164.40180811 -88.63574219 173.73486328 C-78.36748262 177.35624421 -68.44473315 178.37366827 -57.60546875 178.28515625 C-56.94616364 178.2814502 -56.28685852 178.27774414 -55.60757446 178.27392578 C-45.60956031 178.19395742 -36.80746679 177.68882133 -27.48046875 173.84765625 C-26.80274414 173.5738916 -26.12501953 173.30012695 -25.42675781 173.01806641 C-15.35387225 168.87159745 -6.88818215 163.80803244 1.51953125 156.84765625 C2.14730469 156.38230469 2.77507812 155.91695312 3.421875 155.4375 C19.68565652 142.92395516 30.47478485 120.7568109 33.51953125 100.84765625 C36.01842664 72.81098412 30.59564634 48.68250982 12.51953125 26.84765625 C12.05417969 26.21988281 11.58882812 25.59210937 11.109375 24.9453125 C-1.19411932 8.95453242 -22.22340489 -0.9822163 -41.60546875 -4.76171875 C-57.04712497 -6.31833732 -73.89502996 -7.03624235 -88.48046875 -1.15234375 Z " fill="#040404" transform="translate(170.48046875,26.15234375)"/>
<path d="M0 0 C1.258125 0.268125 2.51625 0.53625 3.8125 0.8125 C4.57421875 2.4453125 4.57421875 2.4453125 4.8125 4.8125 C3.50074544 6.96906136 2.2176336 8.75598952 0.625 10.6875 C0.17519775 11.25194824 -0.27460449 11.81639648 -0.73803711 12.39794922 C-6.50028641 19.5659861 -12.56593193 26.49040288 -18.59521484 33.43359375 C-19.88571434 34.92653366 -21.16199794 36.43172677 -22.4375 37.9375 C-23.16453125 38.78570312 -23.8915625 39.63390625 -24.640625 40.5078125 C-26.5590304 42.90342922 -26.5590304 42.90342922 -26.1875 46.8125 C-25.17391551 48.7494377 -25.17391551 48.7494377 -23.6875 50.62109375 C-23.13755371 51.3581958 -22.58760742 52.09529785 -22.02099609 52.85473633 C-21.41594238 53.64517334 -20.81088867 54.43561035 -20.1875 55.25 C-19.5682666 56.07459717 -18.9490332 56.89919434 -18.31103516 57.7487793 C-16.28098223 60.44531484 -14.23604679 63.12999184 -12.1875 65.8125 C-11.47174805 66.7519043 -10.75599609 67.69130859 -10.01855469 68.65917969 C-5.77741857 74.22650058 -5.77741857 74.22650058 -1.51953125 79.78100586 C0.27143876 82.11492019 2.04609047 84.45996855 3.8125 86.8125 C4.26850586 87.40466309 4.72451172 87.99682617 5.19433594 88.60693359 C7.87005446 92.26573262 7.87005446 92.26573262 7.5625 95.1875 C7.315 95.72375 7.0675 96.26 6.8125 96.8125 C5.13098197 97.03143182 3.44091453 97.18505557 1.75 97.3125 C0.81027344 97.4053125 -0.12945312 97.498125 -1.09765625 97.59375 C-8.46501297 95.73095437 -13.17635005 86.2615193 -17.375 80.3125 C-22.23075213 73.5049329 -27.17103113 66.77381469 -32.22924805 60.11523438 C-32.69113525 59.50486328 -33.15302246 58.89449219 -33.62890625 58.265625 C-34.02795166 57.74129883 -34.42699707 57.21697266 -34.83813477 56.67675781 C-36.69704319 54.10852464 -38.42888497 51.45042254 -40.1875 48.8125 C-40.5175 64.3225 -40.8475 79.8325 -41.1875 95.8125 C-43.55363456 96.99556728 -45.05530736 96.94604608 -47.6875 96.9375 C-48.4815625 96.94007813 -49.275625 96.94265625 -50.09375 96.9453125 C-52.1875 96.8125 -52.1875 96.8125 -54.1875 95.8125 C-54.21062178 83.70408056 -54.22841424 71.59566633 -54.23931217 59.48722935 C-54.24454136 53.86542038 -54.25163966 48.24362647 -54.26293945 42.62182617 C-54.27376706 37.20131723 -54.27977656 31.7808228 -54.28237724 26.36030388 C-54.28423172 24.28735055 -54.28785277 22.21439806 -54.29323006 20.14145088 C-54.3004388 17.24866107 -54.30149101 14.35593204 -54.30102539 11.46313477 C-54.30462067 10.59711136 -54.30821594 9.73108795 -54.31192017 8.83882141 C-54.30155216 2.92655216 -54.30155216 2.92655216 -53.1875 1.8125 C-51.35634117 1.71398829 -49.52130067 1.68277371 -47.6875 1.6875 C-46.6871875 1.68492188 -45.686875 1.68234375 -44.65625 1.6796875 C-42.1875 1.8125 -42.1875 1.8125 -41.1875 2.8125 C-41.0271444 5.84057044 -40.92789552 8.84835454 -40.87109375 11.87890625 C-40.85031265 12.78752914 -40.82953156 13.69615204 -40.80812073 14.63230896 C-40.74252328 17.54645946 -40.6836932 20.46070304 -40.625 23.375 C-40.58182446 25.34571291 -40.53821049 27.31641626 -40.49414062 29.28710938 C-40.38683157 34.12880988 -40.28559325 38.97060437 -40.1875 43.8125 C-31.45976576 33.14087275 -31.45976576 33.14087275 -22.8972168 22.33691406 C-21.56484126 20.62800291 -20.22104567 18.9286249 -18.875 17.23046875 C-17.00120922 14.86562973 -15.18058013 12.46798918 -13.375 10.05078125 C-5.66838652 0.00887071 -5.66838652 0.00887071 0 0 Z " fill="#050505" transform="translate(135.1875,63.1875)"/>
</svg>
